<?xml version="1.0" standalone="no"?>
<!DOCTYPE svg PUBLIC "-//W3C//DTD SVG 20010904//EN"
 "http://www.w3.org/TR/2001/REC-SVG-20010904/DTD/svg10.dtd">
<svg version="1.0" xmlns="http://www.w3.org/2000/svg"
 width="840.000000pt" height="762.000000pt" viewBox="0 0 840.000000 762.000000"
 preserveAspectRatio="xMidYMid meet">

<g transform="translate(0.000000,762.000000) scale(0.100000,-0.100000)"
fill="#ffffff" stroke="none">
<path d="M6653 7153 c-12 -32 -126 -328 -253 -658 -127 -330 -265 -685 -305
-790 -40 -104 -151 -390 -245 -635 -95 -245 -216 -560 -270 -700 -139 -360
-235 -608 -255 -658 l-17 -42 -2111 2 -2111 3 -58 495 c-135 1160 -170 1457
-193 1660 -14 118 -27 230 -30 248 l-6 32 -294 0 c-266 0 -295 -2 -295 -16 0
-9 11 -112 25 -228 13 -116 47 -407 75 -646 28 -239 64 -550 80 -690 16 -140
59 -511 95 -825 36 -313 68 -585 71 -602 l6 -33 2257 -2 2257 -3 -140 -364
c-78 -200 -148 -367 -156 -372 -8 -4 -575 -42 -1260 -84 -1918 -118 -2802
-174 -2806 -177 -9 -9 -115 -420 -110 -425 6 -6 521 1 2256 32 443 8 1068 19
1390 25 322 5 705 13 851 16 l266 7 18 76 c17 76 52 171 270 741 64 168 163
427 220 575 57 149 349 914 650 1700 301 787 565 1477 587 1535 22 58 43 109
48 114 9 9 260 13 778 15 l262 1 0 365 0 365 -763 0 -763 0 -21 -57z"/>
<path d="M5350 1554 c-72 -14 -185 -60 -237 -96 -169 -117 -255 -268 -270
-469 -19 -276 153 -528 421 -616 158 -51 339 -32 489 52 117 66 227 203 273
340 22 67 27 98 27 185 0 178 -61 320 -189 441 -116 109 -235 159 -389 164
-55 2 -111 1 -125 -1z"/>
<path d="M975 1419 c-212 -27 -396 -196 -449 -410 -92 -373 251 -734 623 -655
148 31 266 107 345 224 61 90 88 167 94 273 7 137 -26 252 -103 354 -121 161
-310 240 -510 214z"/>
</g>
</svg>
